# xmcd
#
# Track frame offsets: 
#        150
#        25093
#        44231
#        64742
#        86879
#        113626
#        136715
#        155526
#        170453
#        188907
#        216494
#
# Disc length: 3036 seconds
#
# Revision: 0
# Processed by: cddbd v1.5.2PL0 Copyright (c) Steve Scherf et al.
# Submitted via: ExactAudioCopy v1.3
#
DISCID=9c0bda0b
DTITLE=Francesco Piu Peace and Groove Band - The Cann o'now Sessions
DYEAR=2019
DGENRE=Blues
TTITLE0=In the Cage of Your Love
TTITLE1=Hold On
TTITLE2=Trouble so Hard
TTITLE3=Down on My Knees
TTITLE4=My Eyes Won't See No More
TTITLE5=Mother
TTITLE6=Black Woman
TTITLE7=Crumbled Stones
TTITLE8=You Feed My Soul
TTITLE9=Rough God Goes Riding
TTITLE10=Turn Me Around
EXTD=
EXTT0=
EXTT1=
EXTT2=
EXTT3=
EXTT4=
EXTT5=
EXTT6=
EXTT7=
EXTT8=
EXTT9=
EXTT10=
PLAYORDER=
